<svg width="24" height="18" viewBox="0 0 24 18" fill="none" xmlns="http://www.w3.org/2000/svg">
<path d="M23.0092 1.43531C22.8736 1.22472 22.6872 1.05159 22.4672 0.931835C22.2472 0.812085 22.0006 0.749559 21.7501 0.750002H8.32608C8.03717 0.749982 7.75439 0.8334 7.51174 0.99023C7.2691 1.14706 7.07691 1.37063 6.95827 1.63406L0.883271 15.1341C0.780421 15.3624 0.736398 15.6129 0.755217 15.8627C0.774036 16.1125 0.855098 16.3535 0.991008 16.5639C1.12692 16.7743 1.31335 16.9473 1.53329 17.0672C1.75323 17.187 1.99968 17.2499 2.25015 17.25H15.6742C15.9631 17.25 16.2459 17.1666 16.4885 17.0098C16.7312 16.8529 16.9234 16.6294 17.042 16.3659L23.117 2.86594C23.22 2.63745 23.2641 2.38681 23.2452 2.1369C23.2264 1.88699 23.1453 1.64579 23.0092 1.43531ZM15.6742 15.75H2.25015L8.32608 2.25H21.7501L15.6742 15.75Z" fill="white"/>
</svg>
